# MagicaVoxel @ Ephtracy

# group
o 

# material
mtllib Amogus.mtl
usemtl palette

# normals
vn -1 0 0
vn 1 0 0
vn 0 0 1
vn 0 0 -1
vn 0 -1 0
vn 0 1 0

# texcoords
vt 0.306641 0.5
vt 0.775391 0.5
vt 0.841797 0.5
vt 0.958984 0.5

# verts
v -0.3 0 -7.45058e-08
v -0.3 0 -0.2
v -0.3 1.1 -7.45058e-08
v -0.3 1.1 -0.2
v -0.2 0.5 -0.2
v -0.2 0.5 -0.4
v -0.2 0.8 0.0999999
v -0.2 0.8 -7.45058e-08
v -0.2 0.9 -0.3
v -0.2 0.9 -0.4
v -0.2 1 0.0999999
v -0.2 1 -7.45058e-08
v -0.2 1 -0.2
v -0.2 1 -0.3
v -0.2 1.1 -7.45058e-08
v -0.2 1.1 -0.2
v -0.2 1.2 -7.45058e-08
v -0.2 1.2 -0.2
v -0.1 0.9 -0.3
v -0.1 0.9 -0.4
v -0.1 1 -0.2
v -0.1 1 -0.3
v -0.1 1 -0.4
v -0.1 1.1 -0.2
v -0.1 1.1 -0.3
v 0.1 0 -7.45058e-08
v 0.1 0 -0.2
v 0.1 0.4 -7.45058e-08
v 0.1 0.4 -0.2
v -0.1 0 -7.45058e-08
v -0.1 0 -0.2
v -0.1 0.4 -7.45058e-08
v -0.1 0.4 -0.2
v 0.1 0.9 -0.3
v 0.1 0.9 -0.4
v 0.1 1 -0.2
v 0.1 1 -0.3
v 0.1 1 -0.4
v 0.1 1.1 -0.2
v 0.1 1.1 -0.3
v 0.2 0.5 -0.2
v 0.2 0.5 -0.4
v 0.2 0.8 0.0999999
v 0.2 0.8 -7.45058e-08
v 0.2 0.9 0.0999999
v 0.2 0.9 -7.45058e-08
v 0.2 0.9 -0.3
v 0.2 0.9 -0.4
v 0.2 1 0.0999999
v 0.2 1 -7.45058e-08
v 0.2 1 -0.2
v 0.2 1 -0.3
v 0.2 1.1 -7.45058e-08
v 0.2 1.1 -0.2
v 0.2 1.2 -7.45058e-08
v 0.2 1.2 -0.2
v 0.3 0 -7.45058e-08
v 0.3 0 -0.2
v 0.3 1.1 -7.45058e-08
v 0.3 1.1 -0.2
v -0.2 0.8 0.0999999
v -0.2 1 0.0999999
v 0.1 0.9 0.0999999
v 0.1 1 0.0999999
v 0.2 0.8 0.0999999
v 0.2 0.9 0.0999999
v 0.2 1 0.0999999
v -0.3 0 -7.45058e-08
v -0.3 1.1 -7.45058e-08
v -0.2 0.8 -7.45058e-08
v -0.2 1 -7.45058e-08
v -0.2 1.1 -7.45058e-08
v -0.2 1.2 -7.45058e-08
v -0.1 0 -7.45058e-08
v -0.1 0.4 -7.45058e-08
v 0.1 0 -7.45058e-08
v 0.1 0.4 -7.45058e-08
v 0.1 1 -7.45058e-08
v 0.2 0.8 -7.45058e-08
v 0.2 0.9 -7.45058e-08
v 0.2 1 -7.45058e-08
v 0.2 1.1 -7.45058e-08
v 0.2 1.2 -7.45058e-08
v 0.3 0 -7.45058e-08
v 0.3 1.1 -7.45058e-08
v -0.3 0 -0.2
v -0.3 1.1 -0.2
v -0.2 0.5 -0.2
v -0.2 1 -0.2
v -0.2 1.1 -0.2
v -0.2 1.2 -0.2
v -0.1 0 -0.2
v -0.1 0.4 -0.2
v -0.1 1 -0.2
v -0.1 1.1 -0.2
v 0.1 0 -0.2
v 0.1 0.4 -0.2
v 0.1 1 -0.2
v 0.1 1.1 -0.2
v 0.2 0.5 -0.2
v 0.2 1 -0.2
v 0.2 1.1 -0.2
v 0.2 1.2 -0.2
v 0.3 0 -0.2
v 0.3 1.1 -0.2
v -0.2 0.9 -0.3
v -0.2 1 -0.3
v -0.1 0.9 -0.3
v -0.1 1 -0.3
v -0.1 1.1 -0.3
v 0.1 0.9 -0.3
v 0.1 1 -0.3
v 0.1 1.1 -0.3
v 0.2 0.9 -0.3
v 0.2 1 -0.3
v -0.2 0.5 -0.4
v -0.2 0.9 -0.4
v -0.1 0.9 -0.4
v -0.1 1 -0.4
v 0.1 0.9 -0.4
v 0.1 1 -0.4
v 0.2 0.5 -0.4
v 0.2 0.9 -0.4
v -0.3 0 -7.45058e-08
v -0.1 0 -7.45058e-08
v 0.1 0 -7.45058e-08
v 0.3 0 -7.45058e-08
v -0.3 0 -0.2
v -0.1 0 -0.2
v 0.1 0 -0.2
v 0.3 0 -0.2
v -0.1 0.4 -7.45058e-08
v 0.1 0.4 -7.45058e-08
v -0.1 0.4 -0.2
v 0.1 0.4 -0.2
v -0.2 0.5 -0.2
v 0.2 0.5 -0.2
v -0.2 0.5 -0.4
v 0.2 0.5 -0.4
v -0.2 0.8 0.0999999
v 0.2 0.8 0.0999999
v -0.2 0.8 -7.45058e-08
v 0.2 0.8 -7.45058e-08
v -0.2 0.9 -0.3
v -0.1 0.9 -0.3
v 0.1 0.9 -0.3
v 0.2 0.9 -0.3
v -0.2 0.9 -0.4
v -0.1 0.9 -0.4
v 0.1 0.9 -0.4
v 0.2 0.9 -0.4
v -0.2 1 0.0999999
v 0.1 1 0.0999999
v 0.2 1 0.0999999
v -0.2 1 -7.45058e-08
v 0.1 1 -7.45058e-08
v 0.2 1 -7.45058e-08
v -0.2 1 -0.2
v -0.1 1 -0.2
v 0.1 1 -0.2
v 0.2 1 -0.2
v -0.2 1 -0.3
v -0.1 1 -0.3
v 0.1 1 -0.3
v 0.2 1 -0.3
v -0.1 1 -0.4
v 0.1 1 -0.4
v -0.3 1.1 -7.45058e-08
v -0.2 1.1 -7.45058e-08
v 0.2 1.1 -7.45058e-08
v 0.3 1.1 -7.45058e-08
v -0.3 1.1 -0.2
v -0.2 1.1 -0.2
v -0.1 1.1 -0.2
v 0.1 1.1 -0.2
v 0.2 1.1 -0.2
v 0.3 1.1 -0.2
v -0.1 1.1 -0.3
v 0.1 1.1 -0.3
v -0.2 1.2 -7.45058e-08
v 0.2 1.2 -7.45058e-08
v -0.2 1.2 -0.2
v 0.2 1.2 -0.2

# faces
f 3/3/1 2/3/1 1/3/1
f 4/3/1 2/3/1 3/3/1
f 9/3/1 6/3/1 5/3/1
f 10/3/1 6/3/1 9/3/1
f 11/2/1 8/2/1 7/2/1
f 12/2/1 8/2/1 11/2/1
f 13/3/1 9/3/1 5/3/1
f 14/3/1 9/3/1 13/3/1
f 17/3/1 16/3/1 15/3/1
f 18/3/1 16/3/1 17/3/1
f 22/3/1 20/3/1 19/3/1
f 23/3/1 20/3/1 22/3/1
f 24/3/1 22/3/1 21/3/1
f 25/3/1 22/3/1 24/3/1
f 28/3/1 27/3/1 26/3/1
f 29/3/1 27/3/1 28/3/1
f 30/3/2 31/3/2 32/3/2
f 32/3/2 31/3/2 33/3/2
f 34/3/2 35/3/2 37/3/2
f 37/3/2 35/3/2 38/3/2
f 36/3/2 37/3/2 39/3/2
f 39/3/2 37/3/2 40/3/2
f 43/2/2 44/2/2 45/2/2
f 45/2/2 44/2/2 46/2/2
f 41/3/2 42/3/2 47/3/2
f 47/3/2 42/3/2 48/3/2
f 45/4/2 46/4/2 49/4/2
f 49/4/2 46/4/2 50/4/2
f 41/3/2 47/3/2 51/3/2
f 51/3/2 47/3/2 52/3/2
f 53/3/2 54/3/2 55/3/2
f 55/3/2 54/3/2 56/3/2
f 57/3/2 58/3/2 59/3/2
f 59/3/2 58/3/2 60/3/2
f 63/2/3 62/2/3 61/2/3
f 64/2/3 62/2/3 63/2/3
f 65/2/3 63/2/3 61/2/3
f 66/4/3 64/4/3 63/4/3
f 66/2/3 63/2/3 65/2/3
f 67/4/3 64/4/3 66/4/3
f 70/3/3 69/3/3 68/3/3
f 71/3/3 69/3/3 70/3/3
f 72/3/3 69/3/3 71/3/3
f 74/3/3 70/3/3 68/3/3
f 75/3/3 70/3/3 74/3/3
f 77/3/3 70/3/3 75/3/3
f 78/3/3 73/3/3 72/3/3
f 78/3/3 72/3/3 71/3/3
f 79/3/3 77/3/3 76/3/3
f 79/3/3 70/3/3 77/3/3
f 81/3/3 73/3/3 78/3/3
f 82/3/3 73/3/3 81/3/3
f 83/3/3 73/3/3 82/3/3
f 84/3/3 80/3/3 79/3/3
f 84/3/3 79/3/3 76/3/3
f 84/3/3 82/3/3 81/3/3
f 84/3/3 81/3/3 80/3/3
f 85/3/3 82/3/3 84/3/3
f 86/3/4 87/3/4 88/3/4
f 88/3/4 87/3/4 89/3/4
f 89/3/4 87/3/4 90/3/4
f 86/3/4 88/3/4 92/3/4
f 92/3/4 88/3/4 93/3/4
f 90/3/4 91/3/4 94/3/4
f 89/3/4 90/3/4 94/3/4
f 94/3/4 91/3/4 95/3/4
f 93/3/4 88/3/4 97/3/4
f 95/3/4 91/3/4 99/3/4
f 96/3/4 97/3/4 100/3/4
f 97/3/4 88/3/4 100/3/4
f 98/3/4 99/3/4 101/3/4
f 99/3/4 91/3/4 102/3/4
f 101/3/4 99/3/4 102/3/4
f 102/3/4 91/3/4 103/3/4
f 96/3/4 100/3/4 104/3/4
f 100/3/4 101/3/4 104/3/4
f 101/3/4 102/3/4 104/3/4
f 104/3/4 102/3/4 105/3/4
f 106/3/4 107/3/4 108/3/4
f 108/3/4 107/3/4 109/3/4
f 109/3/4 110/3/4 112/3/4
f 112/3/4 110/3/4 113/3/4
f 111/3/4 112/3/4 114/3/4
f 114/3/4 112/3/4 115/3/4
f 116/3/4 117/3/4 118/3/4
f 116/3/4 118/3/4 120/3/4
f 118/3/4 119/3/4 120/3/4
f 120/3/4 119/3/4 121/3/4
f 116/3/4 120/3/4 122/3/4
f 122/3/4 120/3/4 123/3/4
f 128/3/5 125/3/5 124/3/5
f 129/3/5 125/3/5 128/3/5
f 130/3/5 127/3/5 126/3/5
f 131/3/5 127/3/5 130/3/5
f 134/3/5 133/3/5 132/3/5
f 135/3/5 133/3/5 134/3/5
f 138/3/5 137/3/5 136/3/5
f 139/3/5 137/3/5 138/3/5
f 142/2/5 141/2/5 140/2/5
f 143/2/5 141/2/5 142/2/5
f 144/3/6 145/3/6 148/3/6
f 148/3/6 145/3/6 149/3/6
f 146/3/6 147/3/6 150/3/6
f 150/3/6 147/3/6 151/3/6
f 152/2/6 153/2/6 155/2/6
f 153/4/6 154/4/6 156/4/6
f 155/2/6 153/2/6 156/2/6
f 156/4/6 154/4/6 157/4/6
f 158/3/6 159/3/6 162/3/6
f 162/3/6 159/3/6 163/3/6
f 160/3/6 161/3/6 164/3/6
f 164/3/6 161/3/6 165/3/6
f 163/3/6 164/3/6 166/3/6
f 166/3/6 164/3/6 167/3/6
f 168/3/6 169/3/6 172/3/6
f 172/3/6 169/3/6 173/3/6
f 170/3/6 171/3/6 176/3/6
f 176/3/6 171/3/6 177/3/6
f 174/3/6 175/3/6 178/3/6
f 178/3/6 175/3/6 179/3/6
f 180/3/6 181/3/6 182/3/6
f 182/3/6 181/3/6 183/3/6
